<mxfile host="app.diagrams.net" modified="2024-06-10T09:43:19.996Z" agent="Mozilla/5.0 (Windows NT 10.0; Win64; x64; rv:126.0) Gecko/20100101 Firefox/126.0" etag="eW1wPvA36R19wq5h2gte" version="24.5.2" type="device">
  <diagram name="Page-1" id="9361dd3d-8414-5efd-6122-117bd74ce7a7">
    <mxGraphModel dx="2840" dy="1625" grid="1" gridSize="10" guides="1" tooltips="1" connect="1" arrows="1" fold="1" page="0" pageScale="1.5" pageWidth="826" pageHeight="1169" background="none" math="0" shadow="0">
      <root>
        <mxCell id="0" />
        <mxCell id="1" parent="0" />
        <mxCell id="YI2W7DXEhTe_7VjpbuNO-110" value="" style="edgeStyle=elbowEdgeStyle;elbow=horizontal;endArrow=none;dashed=1;fontFamily=Helvetica;fontSize=14;" parent="1" source="YI2W7DXEhTe_7VjpbuNO-89" target="YI2W7DXEhTe_7VjpbuNO-109" edge="1">
          <mxGeometry x="230.00000000000003" y="310" width="100" height="100" as="geometry">
            <mxPoint x="640" y="130" as="sourcePoint" />
            <mxPoint x="640.5" y="740" as="targetPoint" />
          </mxGeometry>
        </mxCell>
        <mxCell id="4" value="button&#xa;Manager" style="shadow=1;fontFamily=Helvetica;fontSize=14;fontStyle=1" parent="1" vertex="1">
          <mxGeometry x="411" y="80" width="105" height="50" as="geometry" />
        </mxCell>
        <mxCell id="YI2W7DXEhTe_7VjpbuNO-89" value="display&#xa;Controller" style="shadow=1;fontFamily=Helvetica;fontSize=14;fontStyle=1" parent="1" vertex="1">
          <mxGeometry x="588" y="80" width="105" height="50" as="geometry" />
        </mxCell>
        <mxCell id="YI2W7DXEhTe_7VjpbuNO-90" value="" style="edgeStyle=elbowEdgeStyle;elbow=horizontal;endArrow=none;dashed=1;fontFamily=Helvetica;fontSize=14;" parent="1" source="m5NJ58IH4PF-xwwZF46_-27" edge="1">
          <mxGeometry x="230.00000000000003" y="310" width="100" height="100" as="geometry">
            <mxPoint x="665.5" y="660" as="sourcePoint" />
            <mxPoint x="640" y="910" as="targetPoint" />
            <Array as="points" />
          </mxGeometry>
        </mxCell>
        <mxCell id="YI2W7DXEhTe_7VjpbuNO-96" value="" style="edgeStyle=orthogonalEdgeStyle;rounded=0;orthogonalLoop=1;jettySize=auto;html=1;endArrow=none;endFill=0;dashed=1;fontFamily=Helvetica;fontSize=14;" parent="1" edge="1">
          <mxGeometry relative="1" as="geometry">
            <mxPoint x="320" y="170" as="sourcePoint" />
            <mxPoint x="320" y="920" as="targetPoint" />
          </mxGeometry>
        </mxCell>
        <mxCell id="YI2W7DXEhTe_7VjpbuNO-91" value="user" style="shape=umlActor;verticalLabelPosition=bottom;verticalAlign=top;html=1;outlineConnect=0;fontFamily=Helvetica;fontSize=14;fontStyle=1" parent="1" vertex="1">
          <mxGeometry x="305" y="75" width="30" height="60" as="geometry" />
        </mxCell>
        <mxCell id="YI2W7DXEhTe_7VjpbuNO-102" value="" style="edgeStyle=elbowEdgeStyle;elbow=horizontal;endArrow=none;dashed=1;fontFamily=Helvetica;fontSize=14;" parent="1" target="YI2W7DXEhTe_7VjpbuNO-101" edge="1">
          <mxGeometry x="230.00000000000003" y="310" width="100" height="100" as="geometry">
            <mxPoint x="463.5813953488372" y="130" as="sourcePoint" />
            <mxPoint x="463.5" y="740" as="targetPoint" />
          </mxGeometry>
        </mxCell>
        <mxCell id="YI2W7DXEhTe_7VjpbuNO-101" value="" style="rounded=0;whiteSpace=wrap;html=1;fontFamily=Helvetica;fontSize=14;" parent="1" vertex="1">
          <mxGeometry x="458.5" y="470" width="10" height="50" as="geometry" />
        </mxCell>
        <mxCell id="YI2W7DXEhTe_7VjpbuNO-99" value="" style="endArrow=classic;html=1;rounded=0;fontFamily=Helvetica;fontSize=14;" parent="1" edge="1">
          <mxGeometry width="50" height="50" relative="1" as="geometry">
            <mxPoint x="468.5" y="483" as="sourcePoint" />
            <mxPoint x="468.5" y="513" as="targetPoint" />
            <Array as="points">
              <mxPoint x="498.5" y="483" />
              <mxPoint x="498.5" y="503" />
              <mxPoint x="498.5" y="513" />
            </Array>
          </mxGeometry>
        </mxCell>
        <mxCell id="m5NJ58IH4PF-xwwZF46_-7" value="k_work_reschedule(&amp;amp;btnPress,15ms)" style="edgeLabel;html=1;align=center;verticalAlign=middle;resizable=0;points=[];fontSize=14;labelBackgroundColor=#FFFFFF;" vertex="1" connectable="0" parent="YI2W7DXEhTe_7VjpbuNO-99">
          <mxGeometry x="-0.0533" y="-1" relative="1" as="geometry">
            <mxPoint x="91" as="offset" />
          </mxGeometry>
        </mxCell>
        <mxCell id="YI2W7DXEhTe_7VjpbuNO-97" value="" style="endArrow=open;html=1;rounded=0;endFill=0;entryX=-0.06;entryY=0.162;entryDx=0;entryDy=0;entryPerimeter=0;fontFamily=Helvetica;fontSize=14;" parent="1" target="YI2W7DXEhTe_7VjpbuNO-101" edge="1">
          <mxGeometry width="50" height="50" relative="1" as="geometry">
            <mxPoint x="320" y="440" as="sourcePoint" />
            <mxPoint x="472" y="479" as="targetPoint" />
          </mxGeometry>
        </mxCell>
        <mxCell id="YI2W7DXEhTe_7VjpbuNO-98" value="press button" style="edgeLabel;html=1;align=center;verticalAlign=middle;resizable=0;points=[];fontFamily=Helvetica;fontSize=14;" parent="YI2W7DXEhTe_7VjpbuNO-97" vertex="1" connectable="0">
          <mxGeometry x="-0.195" y="-2" relative="1" as="geometry">
            <mxPoint x="5" y="-27" as="offset" />
          </mxGeometry>
        </mxCell>
        <mxCell id="YI2W7DXEhTe_7VjpbuNO-108" value="" style="edgeStyle=elbowEdgeStyle;elbow=horizontal;endArrow=none;dashed=1;fontFamily=Helvetica;fontSize=14;" parent="1" source="YI2W7DXEhTe_7VjpbuNO-101" target="YI2W7DXEhTe_7VjpbuNO-107" edge="1">
          <mxGeometry x="230.00000000000003" y="310" width="100" height="100" as="geometry">
            <mxPoint x="463" y="550" as="sourcePoint" />
            <mxPoint x="463.5" y="970" as="targetPoint" />
          </mxGeometry>
        </mxCell>
        <mxCell id="m5NJ58IH4PF-xwwZF46_-9" value="" style="edgeStyle=orthogonalEdgeStyle;rounded=0;orthogonalLoop=1;jettySize=auto;html=1;entryX=-0.056;entryY=0.191;entryDx=0;entryDy=0;entryPerimeter=0;" edge="1" parent="1" source="YI2W7DXEhTe_7VjpbuNO-107" target="YI2W7DXEhTe_7VjpbuNO-109">
          <mxGeometry relative="1" as="geometry">
            <mxPoint x="513.5" y="537" as="targetPoint" />
            <Array as="points" />
          </mxGeometry>
        </mxCell>
        <mxCell id="m5NJ58IH4PF-xwwZF46_-10" value="selectPressed()" style="edgeLabel;html=1;align=center;verticalAlign=middle;resizable=0;points=[];fontSize=14;" vertex="1" connectable="0" parent="m5NJ58IH4PF-xwwZF46_-9">
          <mxGeometry x="-0.287" y="1" relative="1" as="geometry">
            <mxPoint x="29" y="-10" as="offset" />
          </mxGeometry>
        </mxCell>
        <mxCell id="YI2W7DXEhTe_7VjpbuNO-107" value="" style="rounded=0;whiteSpace=wrap;html=1;fontFamily=Helvetica;fontSize=14;" parent="1" vertex="1">
          <mxGeometry x="458.5" y="532" width="10" height="10" as="geometry" />
        </mxCell>
        <mxCell id="YI2W7DXEhTe_7VjpbuNO-109" value="" style="rounded=0;whiteSpace=wrap;html=1;fontFamily=Helvetica;fontSize=14;" parent="1" vertex="1">
          <mxGeometry x="635.5" y="522" width="10" height="78" as="geometry" />
        </mxCell>
        <mxCell id="YI2W7DXEhTe_7VjpbuNO-111" value="display" style="shadow=1;fontFamily=Helvetica;fontSize=14;fontStyle=1" parent="1" vertex="1">
          <mxGeometry x="798" y="80" width="105" height="50" as="geometry" />
        </mxCell>
        <mxCell id="YI2W7DXEhTe_7VjpbuNO-113" value="" style="edgeStyle=elbowEdgeStyle;elbow=horizontal;endArrow=none;dashed=1;fontFamily=Helvetica;fontSize=14;" parent="1" source="YI2W7DXEhTe_7VjpbuNO-111" edge="1">
          <mxGeometry x="230.00000000000003" y="310" width="100" height="100" as="geometry">
            <mxPoint x="850" y="130" as="sourcePoint" />
            <mxPoint x="850" y="920" as="targetPoint" />
          </mxGeometry>
        </mxCell>
        <mxCell id="YI2W7DXEhTe_7VjpbuNO-143" value="" style="edgeStyle=elbowEdgeStyle;elbow=horizontal;endArrow=none;dashed=1;fontFamily=Helvetica;fontSize=14;" parent="1" source="YI2W7DXEhTe_7VjpbuNO-107" edge="1">
          <mxGeometry x="230.00000000000003" y="310" width="100" height="100" as="geometry">
            <mxPoint x="464" y="598" as="sourcePoint" />
            <mxPoint x="464" y="920" as="targetPoint" />
          </mxGeometry>
        </mxCell>
        <mxCell id="pHPE8b7I82gGhvSn6_Qi-35" value="monkeylist" style="shadow=1;fontFamily=Helvetica;fontSize=14;fontStyle=1" parent="1" vertex="1">
          <mxGeometry x="950" y="80" width="105" height="50" as="geometry" />
        </mxCell>
        <mxCell id="pHPE8b7I82gGhvSn6_Qi-36" value="" style="edgeStyle=elbowEdgeStyle;elbow=horizontal;endArrow=none;dashed=1;fontFamily=Helvetica;fontSize=14;" parent="1" source="pHPE8b7I82gGhvSn6_Qi-35" edge="1">
          <mxGeometry x="230.00000000000003" y="310" width="100" height="100" as="geometry">
            <mxPoint x="1002" y="130" as="sourcePoint" />
            <mxPoint x="1002" y="920" as="targetPoint" />
          </mxGeometry>
        </mxCell>
        <mxCell id="m5NJ58IH4PF-xwwZF46_-11" value="" style="edgeStyle=orthogonalEdgeStyle;rounded=0;orthogonalLoop=1;jettySize=auto;html=1;" edge="1" parent="1">
          <mxGeometry relative="1" as="geometry">
            <mxPoint x="645.5" y="587" as="sourcePoint" />
            <mxPoint x="1250" y="587" as="targetPoint" />
            <Array as="points" />
          </mxGeometry>
        </mxCell>
        <mxCell id="m5NJ58IH4PF-xwwZF46_-12" value="connect(monkey)" style="edgeLabel;html=1;align=center;verticalAlign=middle;resizable=0;points=[];fontSize=14;" vertex="1" connectable="0" parent="m5NJ58IH4PF-xwwZF46_-11">
          <mxGeometry x="-0.287" y="1" relative="1" as="geometry">
            <mxPoint x="68" y="-11" as="offset" />
          </mxGeometry>
        </mxCell>
        <mxCell id="m5NJ58IH4PF-xwwZF46_-13" value="" style="endArrow=classic;html=1;rounded=0;" edge="1" parent="1">
          <mxGeometry width="50" height="50" relative="1" as="geometry">
            <mxPoint x="1208" y="230" as="sourcePoint" />
            <mxPoint x="998" y="230" as="targetPoint" />
          </mxGeometry>
        </mxCell>
        <mxCell id="m5NJ58IH4PF-xwwZF46_-14" value="write discovered devices" style="edgeLabel;html=1;align=center;verticalAlign=middle;resizable=0;points=[];" vertex="1" connectable="0" parent="m5NJ58IH4PF-xwwZF46_-13">
          <mxGeometry x="0.0825" relative="1" as="geometry">
            <mxPoint as="offset" />
          </mxGeometry>
        </mxCell>
        <mxCell id="m5NJ58IH4PF-xwwZF46_-15" value="" style="edgeStyle=orthogonalEdgeStyle;rounded=0;orthogonalLoop=1;jettySize=auto;html=1;exitX=0.986;exitY=0.607;exitDx=0;exitDy=0;exitPerimeter=0;" edge="1" parent="1" source="YI2W7DXEhTe_7VjpbuNO-109">
          <mxGeometry relative="1" as="geometry">
            <mxPoint x="660" y="569.502" as="sourcePoint" />
            <mxPoint x="850" y="570" as="targetPoint" />
            <Array as="points">
              <mxPoint x="750" y="569" />
            </Array>
          </mxGeometry>
        </mxCell>
        <mxCell id="m5NJ58IH4PF-xwwZF46_-16" value="display_loading_page(monkey)" style="edgeLabel;html=1;align=center;verticalAlign=middle;resizable=0;points=[];fontSize=14;" vertex="1" connectable="0" parent="m5NJ58IH4PF-xwwZF46_-15">
          <mxGeometry x="-0.287" y="1" relative="1" as="geometry">
            <mxPoint x="28" y="-12" as="offset" />
          </mxGeometry>
        </mxCell>
        <mxCell id="m5NJ58IH4PF-xwwZF46_-17" value="" style="edgeStyle=orthogonalEdgeStyle;rounded=0;orthogonalLoop=1;jettySize=auto;html=1;" edge="1" parent="1">
          <mxGeometry relative="1" as="geometry">
            <mxPoint x="670" y="370" as="sourcePoint" />
            <mxPoint x="1000" y="370" as="targetPoint" />
            <Array as="points" />
          </mxGeometry>
        </mxCell>
        <mxCell id="m5NJ58IH4PF-xwwZF46_-18" value="getThreeMonkeys(monkeyArray)" style="edgeLabel;html=1;align=center;verticalAlign=middle;resizable=0;points=[];fontSize=14;" vertex="1" connectable="0" parent="m5NJ58IH4PF-xwwZF46_-17">
          <mxGeometry x="-0.287" y="1" relative="1" as="geometry">
            <mxPoint x="61" y="-12" as="offset" />
          </mxGeometry>
        </mxCell>
        <mxCell id="m5NJ58IH4PF-xwwZF46_-19" value="" style="rounded=0;whiteSpace=wrap;html=1;fontFamily=Helvetica;fontSize=14;" vertex="1" parent="1">
          <mxGeometry x="660" y="360" width="10" height="60" as="geometry" />
        </mxCell>
        <mxCell id="m5NJ58IH4PF-xwwZF46_-20" value="" style="endArrow=none;html=1;rounded=0;entryX=0.5;entryY=0;entryDx=0;entryDy=0;" edge="1" parent="1" target="m5NJ58IH4PF-xwwZF46_-19">
          <mxGeometry width="50" height="50" relative="1" as="geometry">
            <mxPoint x="640" y="350" as="sourcePoint" />
            <mxPoint x="730" y="350" as="targetPoint" />
            <Array as="points">
              <mxPoint x="665" y="350" />
            </Array>
          </mxGeometry>
        </mxCell>
        <mxCell id="m5NJ58IH4PF-xwwZF46_-21" value="" style="endArrow=classic;html=1;rounded=0;exitX=0.5;exitY=1;exitDx=0;exitDy=0;" edge="1" parent="1" source="m5NJ58IH4PF-xwwZF46_-19">
          <mxGeometry width="50" height="50" relative="1" as="geometry">
            <mxPoint x="680" y="400" as="sourcePoint" />
            <mxPoint x="640" y="430" as="targetPoint" />
            <Array as="points">
              <mxPoint x="665" y="430" />
            </Array>
          </mxGeometry>
        </mxCell>
        <mxCell id="m5NJ58IH4PF-xwwZF46_-22" value="updateMainPage()" style="edgeLabel;html=1;align=center;verticalAlign=middle;resizable=0;points=[];fontSize=14;" vertex="1" connectable="0" parent="1">
          <mxGeometry x="645.5033333333334" y="330" as="geometry">
            <mxPoint x="4" y="4" as="offset" />
          </mxGeometry>
        </mxCell>
        <mxCell id="m5NJ58IH4PF-xwwZF46_-23" value="" style="edgeStyle=orthogonalEdgeStyle;rounded=0;orthogonalLoop=1;jettySize=auto;html=1;" edge="1" parent="1">
          <mxGeometry relative="1" as="geometry">
            <mxPoint x="670" y="410" as="sourcePoint" />
            <mxPoint x="850" y="410" as="targetPoint" />
            <Array as="points" />
          </mxGeometry>
        </mxCell>
        <mxCell id="m5NJ58IH4PF-xwwZF46_-24" value="display_devices(monkeys)" style="edgeLabel;html=1;align=center;verticalAlign=middle;resizable=0;points=[];fontSize=14;" vertex="1" connectable="0" parent="m5NJ58IH4PF-xwwZF46_-23">
          <mxGeometry x="-0.287" y="1" relative="1" as="geometry">
            <mxPoint x="21" y="-14" as="offset" />
          </mxGeometry>
        </mxCell>
        <mxCell id="m5NJ58IH4PF-xwwZF46_-25" value="" style="edgeStyle=orthogonalEdgeStyle;rounded=0;orthogonalLoop=1;jettySize=auto;html=1;startArrow=classic;startFill=1;endArrow=none;endFill=0;" edge="1" parent="1">
          <mxGeometry relative="1" as="geometry">
            <mxPoint x="645.5" y="680" as="sourcePoint" />
            <mxPoint x="1250" y="680" as="targetPoint" />
            <Array as="points" />
          </mxGeometry>
        </mxCell>
        <mxCell id="m5NJ58IH4PF-xwwZF46_-26" value="onConnected(monkey)" style="edgeLabel;html=1;align=center;verticalAlign=middle;resizable=0;points=[];fontSize=14;" vertex="1" connectable="0" parent="m5NJ58IH4PF-xwwZF46_-25">
          <mxGeometry x="-0.287" y="1" relative="1" as="geometry">
            <mxPoint x="68" y="-11" as="offset" />
          </mxGeometry>
        </mxCell>
        <mxCell id="m5NJ58IH4PF-xwwZF46_-28" value="" style="edgeStyle=elbowEdgeStyle;elbow=horizontal;endArrow=none;dashed=1;fontFamily=Helvetica;fontSize=14;" edge="1" parent="1" source="YI2W7DXEhTe_7VjpbuNO-109" target="m5NJ58IH4PF-xwwZF46_-27">
          <mxGeometry x="230.00000000000003" y="310" width="100" height="100" as="geometry">
            <mxPoint x="640" y="600" as="sourcePoint" />
            <mxPoint x="640" y="910" as="targetPoint" />
            <Array as="points" />
          </mxGeometry>
        </mxCell>
        <mxCell id="m5NJ58IH4PF-xwwZF46_-27" value="" style="rounded=0;whiteSpace=wrap;html=1;fontFamily=Helvetica;fontSize=14;" vertex="1" parent="1">
          <mxGeometry x="635.5" y="670" width="10" height="78" as="geometry" />
        </mxCell>
        <mxCell id="m5NJ58IH4PF-xwwZF46_-29" value="" style="edgeStyle=orthogonalEdgeStyle;rounded=0;orthogonalLoop=1;jettySize=auto;html=1;exitX=0.986;exitY=0.607;exitDx=0;exitDy=0;exitPerimeter=0;" edge="1" parent="1">
          <mxGeometry relative="1" as="geometry">
            <mxPoint x="645.5" y="720" as="sourcePoint" />
            <mxPoint x="850" y="720" as="targetPoint" />
            <Array as="points">
              <mxPoint x="750.5" y="720" />
            </Array>
          </mxGeometry>
        </mxCell>
        <mxCell id="m5NJ58IH4PF-xwwZF46_-30" value="display_device_page(monkey)" style="edgeLabel;html=1;align=center;verticalAlign=middle;resizable=0;points=[];fontSize=14;" vertex="1" connectable="0" parent="m5NJ58IH4PF-xwwZF46_-29">
          <mxGeometry x="-0.287" y="1" relative="1" as="geometry">
            <mxPoint x="29" y="-13" as="offset" />
          </mxGeometry>
        </mxCell>
      </root>
    </mxGraphModel>
  </diagram>
</mxfile>
